<svg height="499pt" viewBox="0 -1 499.096 499" width="499pt" xmlns="http://www.w3.org/2000/svg"><path d="m211.097656 160.046875c44.109375 0 80-35.886719 80-80 0-44.109375-35.890625-80-80-80-44.113281 0-80 35.890625-80 80 0 44.113281 35.886719 80 80 80zm-8-143.445313v15.445313h16v-15.445313c28.894532 3.621094 51.8125 26.550782 55.445313 55.445313h-15.445313v16h15.445313c-3.621094 28.898437-26.550781 51.816406-55.445313 55.449219v-15.449219h-16v15.449219c-28.898437-3.625-51.816406-26.550782-55.449218-55.449219h15.449218v-16h-15.449218c3.632812-28.894531 26.550781-51.816406 55.449218-55.445313zm0 0"/><path d="m219.097656 83.359375v-35.3125h-16v28.6875l-13.65625 13.65625 11.3125 11.3125zm0 0"/><path d="m499.097656 376.046875c0-10.414063-6.714844-19.214844-16-22.527344v-137.472656c0-13.230469-10.769531-24-24-24h-44.121094c-16.617187-20.109375-41.6875-32-67.878906-32-26.195312 0-51.265625 11.890625-67.882812 32h-44.117188c-13.234375 0-24 10.769531-24 24v137.472656c-9.289062 3.3125-16 12.113281-16 22.527344v88h16v8c0 13.234375 10.765625 24 24 24h32c13.230469 0 24-10.765625 24-24v-8h112v8c0 13.234375 10.765625 24 24 24h32c13.230469 0 24-10.765625 24-24v-8h16zm-176-80.957031c-16.050781-1.363282-26.898437-4.019532-38.058594-6.808594-7.894531-1.976562-15.960937-3.976562-25.941406-5.511719v-18.722656c0-4.40625 3.589844-8 8-8h48c4.40625 0 8 3.59375 8 8zm-41.945312 8.71875c16.207031 4.054687 32.960937 8.238281 65.945312 8.238281 32.980469 0 49.734375-4.183594 65.941406-8.238281 14.503907-3.625 28.410157-7.039063 54.058594-7.640625v55.878906h-240v-55.871094c25.644532.601563 39.558594 4.007813 54.054688 7.632813zm153.945312-21.03125c-9.976562 1.535156-18.042968 3.535156-25.945312 5.511718-11.160156 2.789063-22.015625 5.4375-38.054688 6.808594v-31.050781c0-4.40625 3.589844-8 8-8h48c4.40625 0 8 3.59375 8 8zm-200-74.730469h52l2.398438-3.199219c13.527344-18.03125 35.054687-28.800781 57.601562-28.800781 22.542969 0 44.070313 10.769531 57.597656 28.800781l2.402344 3.199219h52c4.40625 0 8 3.59375 8 8v64.128906c-5.824218.136719-11.160156.390625-16 .777344v-16.90625c0-13.230469-10.769531-24-24-24h-48c-13.234375 0-24 10.769531-24 24v31.875c-2.585937.0625-5.160156.125-8 .125s-5.417968-.0625-8-.125v-31.875c0-13.230469-10.769531-24-24-24h-48c-13.234375 0-24 10.769531-24 24v16.90625c-4.839844-.386719-10.175781-.640625-16-.777344v-64.128906c0-4.40625 3.589844-8 8-8zm40 264c0 4.410156-3.59375 8-8 8h-32c-4.410156 0-8-3.589844-8-8v-8h48zm192 0c0 4.410156-3.59375 8-8 8h-32c-4.410156 0-8-3.589844-8-8v-8h48zm16-24h-272v-72c0-4.40625 3.589844-8 8-8h256c4.40625 0 8 3.59375 8 8zm0 0"/><path d="m227.097656 416.046875h240v16h-240zm0 0"/><path d="m182.191406 304.046875-37.335937-112h-107.527344l-37.328125 112h67.097656v144h-8c-13.234375 0-24 10.769531-24 24v24h112v-24c0-13.230469-10.769531-24-24-24h-8v-144h32v49.472656c-9.289062 3.3125-16 12.113281-16 22.527344 0 13.234375 10.765625 24 24 24 13.230469 0 24-10.765625 24-24 0-10.414063-6.714844-19.214844-16-22.527344v-49.472656zm-27.09375 80c-4.410156 0-8-3.589844-8-8 0-4.40625 3.589844-8 8-8 4.40625 0 8 3.59375 8 8 0 4.410156-3.59375 8-8 8zm-106.234375-176h84.472657l26.664062 80h-137.808594zm82.234375 264v8h-80v-8c0-4.40625 3.589844-8 8-8h64c4.40625 0 8 3.59375 8 8zm-32-24h-16v-144h16zm0 0"/></svg>