<svg id="Layer_5" enable-background="new 0 0 64 64" height="512" viewBox="0 0 64 64" width="512" xmlns="http://www.w3.org/2000/svg"><g><path d="m60 1h-44c-1.654 0-3 1.346-3 3v17.082c-2.387 1.386-4 3.965-4 6.918 0 3.452 1.48 6.688 4.054 8.969.335 3.11 2.262 5.743 4.946 7.082v2.158l-6.978 1.642c-5.9 1.387-10.022 6.591-10.022 12.653v2.496h42v-2.496c0-4.937-2.734-9.303-6.935-11.504h12.935v9c0 2.757 2.243 5 5 5s5-2.243 5-5v-9h1c1.654 0 3-1.346 3-3v-42c0-1.654-1.346-3-3-3zm-44 2h44c.551 0 1 .449 1 1v5h-46v-5c0-.551.449-1 1-1zm-5 25c0-3.309 2.691-6 6-6h3.544c1.81 0 3.584-.623 4.998-1.753l2.192-1.754c.576 1.03 1.266 2.505 1.266 3.507 0 1.491-1.717 3-5 3v2c3.912 0 6.091-1.715 6.768-3.651 1.382 1.126 2.232 2.828 2.232 4.651 0 2.189-.716 4.275-2 5.987v-2.472c0-1.938-1.577-3.515-3.516-3.515-.449 0-.888.084-1.306.251-2.693 1.078-5.662 1.079-8.358 0-.416-.167-.855-.251-1.304-.251-1.939 0-3.516 1.577-3.516 3.516v2.472c-1.284-1.713-2-3.799-2-5.988zm4 8v-4.484c0-.836.68-1.516 1.516-1.516.194 0 .383.037.563.108 3.175 1.271 6.67 1.27 9.843 0 .179-.071.369-.108.562-.108.836 0 1.516.68 1.516 1.516v4.484c0 3.86-3.14 7-7 7s-7-3.14-7-7zm10.482 12.141.376.088-.622 5.593-1.977-1.977zm-3.482-3.141c.688 0 1.356-.085 2-.232v1.955l-2 3.333-2-3.333v-1.955c.644.147 1.312.232 2 .232zm-3.482 3.141 2.223 3.705-1.977 1.977-.622-5.593zm22.482 12.363v.496h-6v-4h-2v4h-22v-4h-2v4h-6v-.496c0-5.13 3.487-9.533 8.48-10.708l4.701-1.106 1.054 9.488 4.765-4.764 4.764 4.764 1.054-9.488 4.701 1.106c4.994 1.176 8.481 5.579 8.481 10.708zm16-23.504v16h-2v-16zm-5.132-2 2.132-3.197 2.132 3.197zm-.868 2h2v16h-2zm3 24c-1.654 0-3-1.346-3-3v-3h6v3c0 1.654-1.346 3-3 3zm6-14h-1v-11.303l-5-7.5-5 7.5v11.303h-19.634l-3.366-.792v-2.158c2.683-1.339 4.611-3.972 4.946-7.082 2.574-2.28 4.054-5.516 4.054-8.968 0-2.894-1.602-5.56-4.105-6.965-.404-2.05-1.872-4.302-2.063-4.589l-.605-.908-3.934 3.148c-1.06.847-2.391 1.314-3.749 1.314h-3.544c-.692 0-1.359.097-2 .263v-9.263h46v35c0 .551-.449 1-1 1z"/><path d="m21 57h2v2h-2z"/><path d="m25 5h2v2h-2z"/><path d="m17 5h2v2h-2z"/><path d="m21 5h2v2h-2z"/><path d="m25 13h2v2h-2z"/><path d="m21 13h2v2h-2z"/><path d="m17 13h2v2h-2z"/><path d="m37 27h22v-14h-22zm2-12h18v10h-18z"/><path d="m41 17h14v2h-14z"/><path d="m41 21h14v2h-14z"/><path d="m37 29h10v2h-10z"/><path d="m37 33h10v2h-10z"/><path d="m33 37h14v2h-14z"/><path d="m33 41h10v2h-10z"/><path d="m45 41h2v2h-2z"/></g></svg>