<svg height="512pt" viewBox="0 -49 512 512" width="512pt" xmlns="http://www.w3.org/2000/svg"><path d="m415.425781 186.695312c-4.140625 0-7.5 3.359376-7.5 7.5v13.117188c0 4.140625 3.359375 7.5 7.5 7.5 4.144531 0 7.5-3.359375 7.5-7.5v-13.117188c0-4.140624-3.355469-7.5-7.5-7.5zm0 0"/><path d="m406.496094 234.089844h17.863281c4.140625 0 7.5-3.359375 7.5-7.5s-3.359375-7.5-7.5-7.5h-17.863281c-4.144532 0-7.5 3.359375-7.5 7.5s3.355468 7.5 7.5 7.5zm0 0"/><path d="m288.019531 207.3125v-13.117188c0-4.140624-3.359375-7.5-7.5-7.5s-7.5 3.359376-7.5 7.5v13.117188c0 4.140625 3.359375 7.5 7.5 7.5s7.5-3.359375 7.5-7.5zm0 0"/><path d="m264.085938 226.589844c0 4.140625 3.359374 7.5 7.5 7.5h17.863281c4.144531 0 7.5-3.359375 7.5-7.5s-3.355469-7.5-7.5-7.5h-17.863281c-4.140626 0-7.5 3.359375-7.5 7.5zm0 0"/><path d="m201.492188 214.8125c4.144531 0 7.5-3.359375 7.5-7.5v-13.117188c0-4.140624-3.355469-7.5-7.5-7.5-4.140626 0-7.5 3.359376-7.5 7.5v13.117188c0 4.140625 3.359374 7.5 7.5 7.5zm0 0"/><path d="m192.5625 234.089844h17.863281c4.140625 0 7.5-3.359375 7.5-7.5s-3.359375-7.5-7.5-7.5h-17.863281c-4.140625 0-7.5 3.359375-7.5 7.5s3.355469 7.5 7.5 7.5zm0 0"/><path d="m66.585938 214.8125c4.140624 0 7.5-3.359375 7.5-7.5v-13.117188c0-4.140624-3.359376-7.5-7.5-7.5-4.140626 0-7.5 3.359376-7.5 7.5v13.117188c0 4.140625 3.359374 7.5 7.5 7.5zm0 0"/><path d="m57.652344 234.089844h17.867187c4.140625 0 7.5-3.359375 7.5-7.5s-3.359375-7.5-7.5-7.5h-17.867187c-4.140625 0-7.5 3.359375-7.5 7.5s3.359375 7.5 7.5 7.5zm0 0"/><path d="m134.039062 233.347656c6.867188 0 13.324219-2.878906 17.710938-7.902344 2.726562-3.117187 2.410156-7.855468-.710938-10.582031-3.117187-2.726562-7.855468-2.410156-10.582031.710938-1.542969 1.761719-3.878906 2.773437-6.417969 2.773437-2.535156 0-4.875-1.011718-6.417968-2.773437-2.722656-3.117188-7.460938-3.4375-10.582032-.710938-3.117187 2.726563-3.4375 7.464844-.710937 10.582031 4.390625 5.023438 10.84375 7.902344 17.710937 7.902344zm0 0"/><path d="m387.886719 235.308594c-2.011719-3.078125-4.09375-6.265625-6.796875-8.78125-6.320313-5.894532-14.726563-9.410156-22.480469-9.410156-3.824219 0-7.421875.839843-10.636719 2.460937-3.214844-1.621094-6.8125-2.460937-10.636718-2.460937-7.753907 0-16.160157 3.515624-22.480469 9.410156-2.703125 2.515625-4.78125 5.703125-6.792969 8.78125-1.972656 3.015625-4.011719 6.136718-6.019531 7.542968-3.210938 2.246094-4.980469 5.917969-4.738281 9.816407.242187 3.878906 2.441406 7.28125 5.882812 9.097656 5.839844 3.085937 14.808594 6.761719 24.375 6.765625h.003906c7.6875 0 14.617188-2.378906 20.40625-6.941406 5.792969 4.5625 12.722656 6.941406 20.410156 6.941406 9.566407 0 18.539063-3.679688 24.375-6.761719 3.441407-1.820312 5.644532-5.21875 5.886719-9.101562.242188-3.898438-1.53125-7.570313-4.742187-9.816407-2.007813-1.40625-4.046875-4.527343-6.015625-7.542968zm-19.503907 18.21875c-5.9375 0-10.699218-2.34375-14.554687-7.160156-1.421875-1.78125-3.578125-2.816407-5.855469-2.816407s-4.433594 1.039063-5.855468 2.816407c-3.855469 4.820312-8.613282 7.160156-14.550782 7.160156h-.003906c-4.28125 0-8.585938-1.1875-12.261719-2.65625 2.050781-2.355469 3.746094-4.953125 5.316407-7.359375 1.523437-2.328125 3.097656-4.738281 4.464843-6.011719 3.507813-3.269531 8.316407-5.382812 12.253907-5.382812 2.25 0 4.082031.667968 5.601562 2.042968 2.855469 2.59375 7.214844 2.59375 10.074219 0 1.515625-1.375 3.347656-2.042968 5.601562-2.042968 3.933594 0 8.742188 2.113281 12.25 5.382812 1.371094 1.273438 2.945313 3.683594 4.464844 6.011719 1.574219 2.40625 3.269531 5.003906 5.320313 7.359375-3.679688 1.46875-7.980469 2.65625-12.265626 2.65625zm0 0"/><path d="m401.203125 146.296875c0-4.140625-3.359375-7.5-7.5-7.5h-91.449219c-4.140625 0-7.5 3.359375-7.5 7.5s3.359375 7.5 7.5 7.5h91.449219c4.140625 0 7.5-3.359375 7.5-7.5zm0 0"/><path d="m379.292969 128.425781c4.140625 0 7.5-3.355469 7.5-7.5 0-4.140625-3.359375-7.5-7.5-7.5h-62.632813c-4.140625 0-7.5 3.359375-7.5 7.5 0 4.144531 3.359375 7.5 7.5 7.5zm0 0"/><path d="m490.761719 117.359375c-9.65625-10.714844-23.191407-16.488281-40.273438-17.1875-6.890625-8.363281-14.789062-15.933594-23.601562-22.484375-3.324219-2.46875-8.019531-1.777344-10.492188 1.546875-2.46875 3.324219-1.777343 8.023437 1.546875 10.496094 27.6875 20.574219 45.316406 52.460937 48.53125 86.914062 5.46875 58.566407-33.15625 115.722657-91.105468 129.710938-24.753907 5.972656-50.761719 3.03125-74.199219-6.609375-20.84375-8.570313-38.769531-24.21875-51.300781-42.824219-.011719-.019531-.019532-.035156-.03125-.050781 4.011718-6.996094 7.371093-14.316406 10.085937-21.871094.011719-.039062.027344-.082031.042969-.125 8.328125-22.96875 10.246094-48.269531 5.769531-72.269531-2.792969-14.980469-8.21875-29.957031-15.898437-43.347657 22.269531-33.109374 58.632812-52.738281 98.140624-52.738281 15.835938 0 31.21875 3.128907 45.71875 9.292969 3.8125 1.621094 8.214844-.15625 9.835938-3.96875s-.152344-8.214844-3.964844-9.835938c-16.371094-6.957031-33.726562-10.488281-51.589844-10.488281-42.492187 0-81.71875 20.113281-107.003906 54.3125-14.921875-20.085937-35.160156-35.855469-58.566406-45.109375.832031-3.625 1.265625-7.335937 1.265625-11.097656 0-27.363281-22.265625-49.625-49.625-49.625-27.367187 0-49.625 22.261719-49.625 49.625 0 3.75.425781 7.449219 1.253906 11.0625-10.890625 4.300781-21.261719 10.054688-30.875 17.25-3.316406 2.476562-3.996093 7.179688-1.515625 10.496094 2.480469 3.316406 7.179688 3.996094 10.496094 1.515625 10.207031-7.632813 21.355469-13.46875 33.121094-17.410157 10.453125-3.5 21.433594-5.484374 32.441406-5.921874 11.015625-.4375 22.160156.679687 32.863281 3.34375.054688.011718.109375.027343.164063.042968 39.0625 9.769532 70.617187 39.28125 83.90625 77.546875.011718.027344.019531.054688.027344.082031-.226563-.289062-.460938-.566406-.6875-.851562-6.613282-8.230469-14.394532-15.558594-23.269532-21.308594-10.035156-6.484375-21.484375-10.867187-33.308594-12.617187-25.074218-3.851563-46.78125 3.902343-54.992187 7.441406-8.210937-3.539063-29.925781-11.296875-55.003906-7.441406-11.820313 1.816406-23.257813 6.078125-33.289063 12.605469-.007812.003906-.019531.011718-.027344.015624-8.867187 5.761719-16.597656 13.085938-23.242187 21.285157-.234375.289062-.472656.574219-.707031.867187 4.894531-14.175781 12.363281-27.410156 22.125-38.953125 2.675781-3.164062 2.28125-7.898437-.882813-10.570312-3.164062-2.675781-7.894531-2.28125-10.570312.882812-20.925781 24.742188-32.449219 56.375-32.449219 89.074219 0 37.882812 15.226562 72.203125 39.765625 96.964844-3.582031 3.046875-6.480469 6.769531-8.609375 11.195312-7.457031 15.5-2.734375 34.339844 11.1875 45.234375-11.464844 20.4375-17.289062 42.136719-17.289062 64.609375 0 4.140625 3.359374 7.5 7.5 7.5h416.914062c4.140625 0 7.5-3.359375 7.5-7.5 0-22.472656-5.824219-44.171875-17.289062-64.609375 13.921874-10.894531 18.644531-29.734375 11.1875-45.234375-2.128907-4.425781-5.027344-8.152344-8.613282-11.199218 14.699219-14.832032 26.054688-33.089844 32.796875-53.496094 21.105469-3.382813 36.949219-21.527344 36.949219-43.464844 0-8.136719-2.183594-15.757812-6.003906-22.292969.332031-8.054687-.132813-31.644531-15.234375-48.410156zm-391.34375-67.738281c0-19.089844 15.535156-34.625 34.625-34.625 19.09375 0 34.625 15.535156 34.625 34.625 0 2.148437-.195313 4.269531-.582031 6.351562-.175782-.046875-.355469-.085937-.53125-.132812-10.914063-2.859375-22.226563-4.320313-33.511719-4.320313-6.167969 0-12.296875.449219-18.402344 1.296875-5.289063.734375-10.507813 1.789063-15.636719 3.15625-.390625-2.085937-.585937-4.203125-.585937-6.351562zm330.476562 280.445312c-8.566406 6.324219-21.707031 3.898438-24.984375-7.261718-1.128906-3.84375-.296875-7.917969 1.066406-11.585938.003907-.007812.007813-.019531.011719-.03125 8.875-4.347656 17.265625-9.691406 25.023438-15.9375 2.75 1.894531 4.839843 4.363281 6.335937 7.476562 4.492188 9.335938 1.359375 20.832032-7.453125 27.339844zm-103.300781-7.179687c7.058594 1.148437 14.230469 1.722656 21.382812 1.722656 6.574219 0 13.140626-.5 19.640626-1.46875.253906-.039063 3.488281-.335937 3.542968-.574219-2.472656 10.507813-11.929687 18.355469-23.183594 18.355469-11.253906 0-20.707031-7.847656-23.183593-18.355469.601562.109375 1.199219.222656 1.800781.320313zm-70.082031-34.941407c-4.742188-.472656-9.792969-.757812-15.125-.757812-5.421875 0-10.816407.300781-16.183594.878906 5.75-5.441406 11.027344-11.386718 15.769531-17.769531 4.71875 6.382813 9.917969 12.285156 15.539063 17.648437zm-178.917969 32.199219c-.402344 5.011719-3.726562 8.808594-7.847656 11.378907-5.90625 3.6875-12.160156 2.574218-17.617188-1.457032-8.8125-6.503906-11.945312-18.003906-7.453125-27.339844 1.496094-3.113281 3.582031-5.582031 6.332031-7.472656 7.757813 6.246094 16.148438 11.589844 25.027344 15.9375.003906.007813.007813.019532.011719.027344 1.085937 2.757812 1.792969 5.890625 1.546875 8.925781zm33.898438 2.53125c7.445312 1.277344 15 1.933594 22.550781 1.933594 7.765625 0 15.535156-.671875 23.179687-2.027344-2.480468 10.503907-11.929687 18.34375-23.179687 18.34375-11.253907 0-20.710938-7.847656-23.183594-18.359375.210937.039063.421875.074219.632813.109375zm-96.484376-133.136719c1.769532-4.261718 3.746094-8.4375 5.8125-12.5625 12.039063-23.328124 27.6875-38.683593 46.652344-45.726562 31.753906-11.796875 62.824219 3.808594 63.121094 3.960938 2.148438 1.105468 4.757812 1.105468 6.902344 0 .011718-.003907.050781-.023438.128906-.0625.910156-.453126 6.65625-3.210938 15.296875-5.433594.011719-.003906.023437-.007813.035156-.011719 15.449219-4.179687 32.417969-4.074219 47.511719 1.492187 19.027344 7.019532 34.722656 22.386719 46.792969 45.773438.019531.042969.042969.085938.066406.128906 1.984375 3.863282 3.808594 7.804688 5.484375 11.8125.082031.195313.164062.394532.246094.589844-.117188 9.996094-1.410156 19.945312-3.921875 29.625-.808594 3.105469-1.730469 6.171875-2.773438 9.207031-13.359375 38.738281-45.433593 68.546875-85.085937 78.058594-17.800782 4.269531-36.652344 4.269531-54.457032.003906-52.117187-12.496093-91.144531-60.046875-91.8125-116.855469zm40.746094 158.632813c7.449219 1.769531 15.097656.234375 21.59375-3.714844 9.289063-5.648437 15.558594-15.171875 15.269532-26.257812-.003907-.078125 0-.15625 0-.234375.878906.289062 1.769531.546875 2.652343.820312.882813 20.628906 17.933594 37.140625 38.773438 37.140625 20.832031 0 37.878906-16.5 38.773437-37.113281 4.25-1.3125 8.445313-2.839844 12.578125-4.589844.019531.019532.035157.035156.054688.050782 4.160156 3.851562 8.074219 7.980468 11.738281 12.308593 11.691406 13.808594 20.910156 29.828125 26.097656 47.207031 2.40625 8.0625 3.914063 16.382813 4.472656 24.777344h-28.152343v-26.796875c0-4.140625-3.359375-7.5-7.5-7.5s-7.5 3.359375-7.5 7.5v26.796875h-101.125v-26.796875c0-4.140625-3.355469-7.5-7.5-7.5-4.140625 0-7.5 3.359375-7.5 7.5v26.796875h-28.179688c1.152344-17.429687 6.335938-34.328125 15.453125-50.394531zm357.78125 50.394531v-26.796875c0-4.144531-3.359375-7.5-7.5-7.5s-7.5 3.355469-7.5 7.5v26.796875h-155.722656c-.003906-.066406-.007812-.128906-.011719-.195312-1.324219-21.921875-8.613281-43.242188-20.03125-61.929688-4.660156-7.625-10.011719-14.847656-15.894531-21.570312-1.945312-2.222656-3.929688-4.425782-6.03125-6.527344 13.203125-4.089844 26.792969-6.15625 40.542969-6.15625 24.945312 0 43.390625 6.894531 48.867187 9.199219 6.101563 2.960937 12.4375 5.445312 18.949219 7.4375.902344 20.609375 17.945313 37.101562 38.773437 37.101562 20.839844 0 37.890626-16.515625 38.773438-37.140625.886719-.273437 1.773438-.53125 2.65625-.824218-.003906.082031 0 .160156-.003906.242187-.328125 12.160156 7.527344 22.800781 18.28125 27.875 5.722656 2.703125 12.320312 3.582031 18.582031 2.09375 9.121094 16.066406 14.300781 32.964844 15.453125 50.394531zm66.023438-271.226562c6 6.625 8.917968 15.066406 10.300781 22.460937-4.464844-2.550781-9.4375-4.332031-14.738281-5.191406-.023438-.003906-.042969-.007813-.0625-.011719-3.175782-9.664062-7.378906-18.867187-12.5625-27.523437 6.945312 1.96875 12.65625 5.398437 17.0625 10.265625zm-.117188 87.429687c.101563-.523437.191406-1.046875.285156-1.570312 2.027344-11.070313 2.707032-22.363281 2.019532-33.597657-.367188-6.117187-1.128906-12.195312-2.292969-18.1875 5.074219 2.199219 9.511719 5.820313 12.660156 10.53125 3.1875 4.765626 4.886719 10.382813 4.886719 16.117188 0 11.992188-7.175781 22.273438-17.558594 26.707031zm0 0"/></svg>