<svg id="Capa_1" enable-background="new 0 0 512 512" height="512" viewBox="0 0 512 512" width="512" xmlns="http://www.w3.org/2000/svg"><g><path d="m94.08 209.866c4.154 0 7.522-3.367 7.522-7.522v-17.433c0-4.155-3.368-7.522-7.522-7.522s-7.522 3.367-7.522 7.522v17.433c0 4.155 3.367 7.522 7.522 7.522z"/><path d="m169.441 209.866c4.154 0 7.522-3.367 7.522-7.522v-17.433c0-4.155-3.368-7.522-7.522-7.522s-7.522 3.367-7.522 7.522v17.433c.001 4.155 3.368 7.522 7.522 7.522z"/><path d="m169.013 255.104c2.895-.881 4.981-3.409 5.294-6.419.071-.688 1.628-17.019-9.41-29.262-7.579-8.409-18.851-12.673-33.503-12.673-14.651 0-25.923 4.263-33.503 12.673-11.037 12.244-9.481 28.574-9.41 29.262.313 3.01 2.398 5.538 5.294 6.419 8.896 2.705 26.09 3.924 37.619-6.441 7.022 6.313 16.145 8.33 24.214 8.33 5.18-.001 9.928-.831 13.405-1.889zm-30.845-21.892c-.103-.212-.216-.42-.339-.624-1.363-2.249-3.802-3.622-6.432-3.622h-.005c-2.63 0-5.068 1.373-6.432 3.622-.123.204-.237.412-.339.624-4.71 8.757-14.653 9.25-20.929 8.547.512-3.604 1.876-8.384 5.374-12.264 4.606-5.109 12.119-7.701 22.329-7.701 10.148 0 17.632 2.559 22.244 7.608 3.546 3.881 4.928 8.717 5.448 12.357-6.285.7-16.213.2-20.919-8.547z"/><path d="m504.478 414.581c4.155 0 7.522-3.367 7.522-7.522v-24.675c0-24.799-8.784-47.583-23.4-65.412 21.471-14.561 23.308-36.832 23.381-37.88.238-3.397-1.77-6.506-4.99-7.614-.042-.016-4.317-1.612-7.945-5.627-4.594-5.083-6.195-11.888-4.758-20.226 9.22-53.517 11.936-127.135-27.487-173.93-21.042-24.979-51.785-38.734-86.562-38.734-24.353 0-47.003 6.756-65.501 19.538-3.417 2.361-4.274 7.046-1.912 10.464 2.359 3.417 7.047 4.275 10.464 1.912 15.973-11.037 35.666-16.87 56.949-16.87 21.411 0 51.813 5.791 75.057 33.383 28.255 33.539 36.611 89.448 24.167 161.683-3.653 21.196 7.143 33.905 16.55 39.705-1.672 5.904-6.179 15.992-17.981 23.081-14.225-12.906-32.053-21.906-51.773-25.303 23.593-15.187 39.264-41.662 39.264-71.746v-40.172c0-2.982-1.762-5.682-4.491-6.884-30.326-13.352-46.118-54.97-46.274-55.389-.992-2.672-3.409-4.554-6.244-4.861-2.833-.297-5.603 1.019-7.143 3.422-29.986 46.827-97.288 57.42-99.866 57.806-3.696.476-6.552 3.635-6.552 7.46v38.618c0 30.084 15.671 56.56 39.265 71.746-19.72 3.397-37.547 12.396-51.773 25.303-11.814-7.096-16.318-17.193-17.985-23.079 9.408-5.798 20.207-18.507 16.554-39.707-12.106-70.275-4.49-125.276 22.03-159.056 2.565-3.267 1.996-7.996-1.272-10.561-3.265-2.564-7.995-1.995-10.561 1.272-29.218 37.219-37.871 96.315-25.021 170.899 1.436 8.338-.165 15.143-4.759 20.226-3.62 4.006-7.883 5.603-7.88 5.603-3.22 1.108-5.294 4.241-5.056 7.637.073 1.047 1.91 23.319 23.382 37.88-6.557 7.998-11.936 16.994-15.878 26.721-13.221-32.621-42.635-57.009-78.219-63.139 15.88-10.222 28.159-25.556 34.494-43.671 18.413-.038 33.38-15.028 33.38-33.45 0-4.949-1.089-9.645-3.025-13.875 14.067-41.499 13.342-74.189-2.182-97.193-15.213-22.542-40.023-28.738-51.085-30.414-2.094-5.813-6.896-14.71-17.732-21.878-24.039-15.9-64.347-15.481-119.805 1.243-20.718 6.252-34.916 17.831-42.199 34.42-11.008 25.074-5.698 60.923 15.767 106.587-4.702 5.763-7.528 13.113-7.528 21.113 0 18.422 14.968 33.411 33.381 33.45 6.338 18.123 18.626 33.463 34.518 43.685-18.522 3.194-35.936 11.382-50.266 23.862-3.133 2.729-3.46 7.48-.732 10.613s7.479 3.46 10.612.733c13.392-11.664 29.938-18.936 47.429-21.034.985 7.539 3.812 18.587 11.799 26.81 6.858 7.06 15.994 10.639 27.154 10.639 11.168 0 20.308-3.585 27.168-10.653 7.991-8.235 10.812-19.278 11.792-26.814 43.736 5.223 77.757 42.54 77.757 87.659v86.118h-34.037v-74.273c0-4.155-3.368-7.522-7.522-7.522s-7.522 3.367-7.522 7.522v74.273h-135.271v-74.273c0-4.155-3.368-7.522-7.522-7.522s-7.522 3.367-7.522 7.522v74.273h-34.037v-86.118c0-16.034 4.339-31.732 12.547-45.395 2.139-3.561.987-8.182-2.574-10.321-3.563-2.141-8.182-.987-10.321 2.574-9.614 16.002-14.696 34.379-14.696 53.141v93.639c0 4.155 3.368 7.522 7.522 7.522h496.956c4.155 0 7.522-3.367 7.522-7.522v-38.877c0-4.155-3.367-7.522-7.522-7.522s-7.522 3.367-7.522 7.522v31.355h-34.038v-74.273c0-4.155-3.367-7.522-7.522-7.522s-7.522 3.367-7.522 7.522v74.273h-135.271v-74.273c0-4.155-3.367-7.522-7.522-7.522s-7.522 3.367-7.522 7.522v74.273h-34.037v-86.118c0-.013 0-.026 0-.039.019-45.061 33.974-82.333 77.64-87.607.986 7.542 3.813 18.597 11.803 26.818 6.858 7.057 15.993 10.635 27.15 10.635 11.17 0 20.313-3.586 27.173-10.658 7.996-8.243 10.814-19.289 11.791-26.823 43.794 5.169 77.878 42.512 77.878 87.673v24.675c-.001 4.157 3.366 7.524 7.521 7.524zm-288.371-193.164c.613-4.116.938-8.324.938-12.607v-23.138c7.826 2.125 13.567 9.285 13.567 17.763 0 8.811-6.224 16.187-14.505 17.982zm-192.706-139.635c5.509-12.548 16.228-21.073 32.768-26.061 62.939-18.983 92.757-12.332 106.687-3.408 11.274 7.221 12.979 16.515 13.12 17.416.325 3.739 3.364 6.458 7.119 6.646.295.016 29.685 1.742 44.964 24.527 11.645 17.366 12.679 42.566 3.123 75.007-4.137-2.861-8.944-4.814-14.137-5.571v-13.281c0-2.871-1.634-5.492-4.212-6.755-23.324-11.428-38.783-49.704-38.934-50.084-1.702-4.66-8.072-6.287-11.799-3.013-54.956 45.662-106.862 41.378-107.358 41.339-4.288-.527-8.363 3.165-8.266 7.485v24.309c-3.111.453-6.081 1.339-8.855 2.59-18.129-39.589-23.059-71.013-14.22-91.146zm9.508 121.653c0-8.478 5.744-15.64 13.567-17.764v23.139c0 4.283.326 8.492.938 12.607-8.28-1.795-14.505-9.171-14.505-17.982zm28.61 5.375v-55.08c17.062-.337 58.093-5.078 102.525-38.854 6.267 12.699 19.413 35.348 37.958 46.624v47.31c0 38.73-31.51 70.241-70.242 70.241-38.73 0-70.241-31.511-70.241-70.241zm70.241 108.338c-7.038 0-12.39-1.988-16.364-6.078-4.694-4.831-6.657-11.766-7.476-16.976h47.685c-.816 5.204-2.777 12.13-7.473 16.968-3.973 4.095-9.329 6.086-16.372 6.086zm178.237-108.339v-32.366c18.393-3.667 66.299-16.419 96.162-52.602 7.283 14.345 21.857 37.596 44.32 49.503v35.465c0 38.731-31.51 70.242-70.241 70.242-38.73 0-70.241-31.511-70.241-70.242zm70.118 108.339c-7.036 0-12.388-1.987-16.361-6.075-4.693-4.829-6.658-11.766-7.478-16.979h47.686c-.815 5.202-2.775 12.124-7.472 16.965-3.975 4.098-9.331 6.089-16.375 6.089z"/><path d="m342.558 177.389c-4.155 0-7.522 3.367-7.522 7.522v17.433c0 4.155 3.367 7.522 7.522 7.522s7.522-3.367 7.522-7.522v-17.433c-.001-4.155-3.368-7.522-7.522-7.522z"/><path d="m417.919 209.866c4.155 0 7.522-3.367 7.522-7.522v-17.433c0-4.155-3.367-7.522-7.522-7.522s-7.522 3.367-7.522 7.522v17.433c.001 4.155 3.368 7.522 7.522 7.522z"/><path d="m404.016 236.56c4.223-9.326-9.176-15.55-13.627-6.422-.232.47-2.491 4.59-10.15 4.59-7.658 0-9.918-4.12-10.15-4.59-4.451-9.128-17.851-2.904-13.627 6.422 2.342 5.134 9.723 13.239 23.777 13.239s21.435-8.105 23.777-13.239z"/></g></svg>